<mxfile host="Electron" modified="2024-06-22T15:04:22.544Z" agent="Mozilla/5.0 (Windows NT 10.0; Win64; x64) AppleWebKit/537.36 (KHTML, like Gecko) draw.io/24.5.3 Chrome/124.0.6367.207 Electron/30.0.6 Safari/537.36" etag="_-1j1YmVPOUiYkAq9IAM" version="24.5.3" type="device" pages="4">
  <diagram name="login_v0" id="lx8w-5D50L30-cF4REy6">
    <mxGraphModel dx="1500" dy="899" grid="1" gridSize="10" guides="1" tooltips="1" connect="1" arrows="1" fold="1" page="1" pageScale="1" pageWidth="827" pageHeight="1169" math="0" shadow="0">
      <root>
        <mxCell id="0" />
        <mxCell id="1" parent="0" />
        <mxCell id="7QwR8692JOzy1vhewasi-1" value="Usuario" style="shape=umlLifeline;perimeter=lifelinePerimeter;whiteSpace=wrap;container=1;dropTarget=0;collapsible=0;recursiveResize=0;outlineConnect=0;portConstraint=eastwest;newEdgeStyle={&quot;edgeStyle&quot;:&quot;elbowEdgeStyle&quot;,&quot;elbow&quot;:&quot;vertical&quot;,&quot;curved&quot;:0,&quot;rounded&quot;:0};participant=umlActor;verticalAlign=bottom;labelPosition=center;verticalLabelPosition=top;align=center;size=65;" parent="1" vertex="1">
          <mxGeometry x="20" y="20" width="35" height="780" as="geometry" />
        </mxCell>
        <mxCell id="7QwR8692JOzy1vhewasi-2" value="WebApp (Flask)" style="shape=umlLifeline;perimeter=lifelinePerimeter;whiteSpace=wrap;container=1;dropTarget=0;collapsible=0;recursiveResize=0;outlineConnect=0;portConstraint=eastwest;newEdgeStyle={&quot;edgeStyle&quot;:&quot;elbowEdgeStyle&quot;,&quot;elbow&quot;:&quot;vertical&quot;,&quot;curved&quot;:0,&quot;rounded&quot;:0};size=65;" parent="1" vertex="1">
          <mxGeometry x="445" y="20" width="150" height="780" as="geometry" />
        </mxCell>
        <mxCell id="7QwR8692JOzy1vhewasi-3" value="BaseDeDatos (PostgreSQL)" style="shape=umlLifeline;perimeter=lifelinePerimeter;whiteSpace=wrap;container=1;dropTarget=0;collapsible=0;recursiveResize=0;outlineConnect=0;portConstraint=eastwest;newEdgeStyle={&quot;edgeStyle&quot;:&quot;elbowEdgeStyle&quot;,&quot;elbow&quot;:&quot;vertical&quot;,&quot;curved&quot;:0,&quot;rounded&quot;:0};size=65;" parent="1" vertex="1">
          <mxGeometry x="683" y="20" width="208" height="780" as="geometry" />
        </mxCell>
        <mxCell id="7QwR8692JOzy1vhewasi-4" value="alt" style="shape=umlFrame;dashed=1;pointerEvents=0;dropTarget=0;strokeColor=#B3B3B3;height=20;width=30" parent="1" vertex="1">
          <mxGeometry x="321" y="341" width="401" height="109" as="geometry" />
        </mxCell>
        <mxCell id="7QwR8692JOzy1vhewasi-5" value="[dbUser encontrado]" style="text;strokeColor=none;fillColor=none;align=center;verticalAlign=middle;whiteSpace=wrap;" parent="7QwR8692JOzy1vhewasi-4" vertex="1">
          <mxGeometry x="30" width="371" height="8.89795918367347" as="geometry" />
        </mxCell>
        <mxCell id="7QwR8692JOzy1vhewasi-6" value="alt" style="shape=umlFrame;dashed=1;pointerEvents=0;dropTarget=0;strokeColor=#B3B3B3;height=20;width=30" parent="1" vertex="1">
          <mxGeometry x="84" y="478" width="447" height="303" as="geometry" />
        </mxCell>
        <mxCell id="7QwR8692JOzy1vhewasi-7" value="[dbUser es None]" style="text;strokeColor=none;fillColor=none;align=center;verticalAlign=middle;whiteSpace=wrap;" parent="7QwR8692JOzy1vhewasi-6" vertex="1">
          <mxGeometry x="30" width="417" height="20" as="geometry" />
        </mxCell>
        <mxCell id="7QwR8692JOzy1vhewasi-8" value="[dbUser.correctPassword es False]" style="shape=line;dashed=1;whiteSpace=wrap;verticalAlign=top;labelPosition=center;verticalLabelPosition=middle;align=center;strokeColor=#B3B3B3;" parent="7QwR8692JOzy1vhewasi-6" vertex="1">
          <mxGeometry y="106" width="447" height="3" as="geometry" />
        </mxCell>
        <mxCell id="7QwR8692JOzy1vhewasi-9" value="[dbUser.correctPassword es True]" style="shape=line;dashed=1;whiteSpace=wrap;verticalAlign=top;labelPosition=center;verticalLabelPosition=middle;align=center;strokeColor=#B3B3B3;" parent="7QwR8692JOzy1vhewasi-6" vertex="1">
          <mxGeometry y="207" width="447" height="3" as="geometry" />
        </mxCell>
        <mxCell id="7QwR8692JOzy1vhewasi-10" value="Introduce credenciales (POST /login)" style="verticalAlign=bottom;endArrow=block;edgeStyle=elbowEdgeStyle;elbow=vertical;curved=0;rounded=0;" parent="1" source="7QwR8692JOzy1vhewasi-1" target="7QwR8692JOzy1vhewasi-2" edge="1">
          <mxGeometry relative="1" as="geometry">
            <Array as="points">
              <mxPoint x="316" y="129" />
            </Array>
          </mxGeometry>
        </mxCell>
        <mxCell id="7QwR8692JOzy1vhewasi-11" value="db_login(inUsername, inPassword)" style="curved=1;rounded=0;" parent="1" edge="1">
          <mxGeometry x="-0.0763" y="49" relative="1" as="geometry">
            <Array as="points">
              <mxPoint x="571" y="180" />
              <mxPoint x="571" y="210" />
            </Array>
            <mxPoint x="519.5" y="180" as="sourcePoint" />
            <mxPoint x="519.5" y="210" as="targetPoint" />
            <mxPoint as="offset" />
          </mxGeometry>
        </mxCell>
        <mxCell id="7QwR8692JOzy1vhewasi-12" value="find_username(inUsername)" style="verticalAlign=bottom;endArrow=block;edgeStyle=elbowEdgeStyle;elbow=vertical;curved=0;rounded=0;" parent="1" source="7QwR8692JOzy1vhewasi-2" target="7QwR8692JOzy1vhewasi-3" edge="1">
          <mxGeometry relative="1" as="geometry">
            <Array as="points">
              <mxPoint x="662" y="267" />
            </Array>
          </mxGeometry>
        </mxCell>
        <mxCell id="7QwR8692JOzy1vhewasi-13" value="Devuelve dbUser o None" style="verticalAlign=bottom;endArrow=block;edgeStyle=elbowEdgeStyle;elbow=vertical;curved=0;rounded=0;dashed=1;dashPattern=2 3;" parent="1" source="7QwR8692JOzy1vhewasi-3" target="7QwR8692JOzy1vhewasi-2" edge="1">
          <mxGeometry relative="1" as="geometry">
            <Array as="points">
              <mxPoint x="665" y="321" />
            </Array>
          </mxGeometry>
        </mxCell>
        <mxCell id="7QwR8692JOzy1vhewasi-15" value="dbUser.correctPassword = check_password_hash(dbUser.contrasena, inPassword)" style="curved=1;rounded=0;" parent="1" edge="1">
          <mxGeometry relative="1" as="geometry">
            <Array as="points">
              <mxPoint x="571" y="393" />
              <mxPoint x="571" y="423" />
            </Array>
            <mxPoint x="519.5" y="393" as="sourcePoint" />
            <mxPoint x="519.5" y="423" as="targetPoint" />
          </mxGeometry>
        </mxCell>
        <mxCell id="7QwR8692JOzy1vhewasi-17" value="Usuario incorrecto, pide credenciales de nuevo" style="verticalAlign=bottom;endArrow=block;edgeStyle=elbowEdgeStyle;elbow=vertical;curved=0;rounded=0;" parent="1" edge="1">
          <mxGeometry relative="1" as="geometry">
            <Array as="points">
              <mxPoint x="319" y="559" />
            </Array>
            <mxPoint x="519.4999999999995" y="559" as="sourcePoint" />
            <mxPoint x="36.181818181818244" y="559" as="targetPoint" />
          </mxGeometry>
        </mxCell>
        <mxCell id="7QwR8692JOzy1vhewasi-18" value="Contraseña incorrecta, pide credenciales de nuevo" style="verticalAlign=bottom;endArrow=block;edgeStyle=elbowEdgeStyle;elbow=vertical;curved=0;rounded=0;" parent="1" edge="1">
          <mxGeometry relative="1" as="geometry">
            <Array as="points">
              <mxPoint x="319" y="660" />
            </Array>
            <mxPoint x="519.4999999999995" y="660" as="sourcePoint" />
            <mxPoint x="36.181818181818244" y="660" as="targetPoint" />
          </mxGeometry>
        </mxCell>
        <mxCell id="7QwR8692JOzy1vhewasi-19" value="Inicio de sesión exitoso, redirige a Home" style="verticalAlign=bottom;endArrow=block;edgeStyle=elbowEdgeStyle;elbow=vertical;curved=0;rounded=0;" parent="1" edge="1">
          <mxGeometry relative="1" as="geometry">
            <Array as="points">
              <mxPoint x="319" y="761" />
            </Array>
            <mxPoint x="519.4999999999995" y="761" as="sourcePoint" />
            <mxPoint x="36.181818181818244" y="761" as="targetPoint" />
          </mxGeometry>
        </mxCell>
      </root>
    </mxGraphModel>
  </diagram>
  <diagram id="_L2hojAgDFPOVcnoRSSG" name="signup_v0">
    <mxGraphModel dx="1050" dy="629" grid="1" gridSize="10" guides="1" tooltips="1" connect="1" arrows="1" fold="1" page="1" pageScale="1" pageWidth="827" pageHeight="1169" math="0" shadow="0">
      <root>
        <mxCell id="0" />
        <mxCell id="1" parent="0" />
        <mxCell id="0FGDKSRYMT-RZRmnv8PH-1" value="Usuario" style="shape=umlLifeline;perimeter=lifelinePerimeter;whiteSpace=wrap;container=1;dropTarget=0;collapsible=0;recursiveResize=0;outlineConnect=0;portConstraint=eastwest;newEdgeStyle={&quot;edgeStyle&quot;:&quot;elbowEdgeStyle&quot;,&quot;elbow&quot;:&quot;vertical&quot;,&quot;curved&quot;:0,&quot;rounded&quot;:0};participant=umlActor;verticalAlign=bottom;labelPosition=center;verticalLabelPosition=top;align=center;size=65;" vertex="1" parent="1">
          <mxGeometry x="20" y="20" width="35" height="642" as="geometry" />
        </mxCell>
        <mxCell id="0FGDKSRYMT-RZRmnv8PH-2" value="WebApp (Flask)" style="shape=umlLifeline;perimeter=lifelinePerimeter;whiteSpace=wrap;container=1;dropTarget=0;collapsible=0;recursiveResize=0;outlineConnect=0;portConstraint=eastwest;newEdgeStyle={&quot;edgeStyle&quot;:&quot;elbowEdgeStyle&quot;,&quot;elbow&quot;:&quot;vertical&quot;,&quot;curved&quot;:0,&quot;rounded&quot;:0};size=65;" vertex="1" parent="1">
          <mxGeometry x="372" y="20" width="150" height="642" as="geometry" />
        </mxCell>
        <mxCell id="0FGDKSRYMT-RZRmnv8PH-3" value="BaseDeDatos (PostgreSQL)" style="shape=umlLifeline;perimeter=lifelinePerimeter;whiteSpace=wrap;container=1;dropTarget=0;collapsible=0;recursiveResize=0;outlineConnect=0;portConstraint=eastwest;newEdgeStyle={&quot;edgeStyle&quot;:&quot;elbowEdgeStyle&quot;,&quot;elbow&quot;:&quot;vertical&quot;,&quot;curved&quot;:0,&quot;rounded&quot;:0};size=65;" vertex="1" parent="1">
          <mxGeometry x="709" y="20" width="208" height="642" as="geometry" />
        </mxCell>
        <mxCell id="0FGDKSRYMT-RZRmnv8PH-4" value="alt" style="shape=umlFrame;dashed=1;pointerEvents=0;dropTarget=0;strokeColor=#B3B3B3;height=20;width=30" vertex="1" parent="1">
          <mxGeometry x="84" y="203" width="740" height="364" as="geometry" />
        </mxCell>
        <mxCell id="0FGDKSRYMT-RZRmnv8PH-5" value="[Usuario ya existe]" style="text;strokeColor=none;fillColor=none;align=center;verticalAlign=middle;whiteSpace=wrap;" vertex="1" parent="0FGDKSRYMT-RZRmnv8PH-4">
          <mxGeometry x="30" width="710" height="20" as="geometry" />
        </mxCell>
        <mxCell id="0FGDKSRYMT-RZRmnv8PH-6" value="[Usuario no existe]" style="shape=line;dashed=1;whiteSpace=wrap;verticalAlign=top;labelPosition=center;verticalLabelPosition=middle;align=center;strokeColor=#B3B3B3;" vertex="1" parent="0FGDKSRYMT-RZRmnv8PH-4">
          <mxGeometry y="160" width="740" height="3" as="geometry" />
        </mxCell>
        <mxCell id="0FGDKSRYMT-RZRmnv8PH-7" value="Rellena formulario (POST /signup)" style="verticalAlign=bottom;endArrow=block;edgeStyle=elbowEdgeStyle;elbow=horizontal;curved=0;rounded=0;" edge="1" parent="1" source="0FGDKSRYMT-RZRmnv8PH-1" target="0FGDKSRYMT-RZRmnv8PH-2">
          <mxGeometry relative="1" as="geometry">
            <Array as="points">
              <mxPoint x="280" y="129" />
            </Array>
          </mxGeometry>
        </mxCell>
        <mxCell id="0FGDKSRYMT-RZRmnv8PH-8" value="Comprueba existencia de username/email" style="verticalAlign=bottom;endArrow=block;edgeStyle=elbowEdgeStyle;elbow=vertical;curved=0;rounded=0;" edge="1" parent="1" source="0FGDKSRYMT-RZRmnv8PH-2" target="0FGDKSRYMT-RZRmnv8PH-3">
          <mxGeometry relative="1" as="geometry">
            <Array as="points">
              <mxPoint x="639" y="183" />
            </Array>
          </mxGeometry>
        </mxCell>
        <mxCell id="0FGDKSRYMT-RZRmnv8PH-9" value="Usuario encontrado" style="verticalAlign=bottom;endArrow=block;edgeStyle=elbowEdgeStyle;elbow=vertical;curved=0;rounded=0;dashed=1;dashPattern=2 3;" edge="1" parent="1" source="0FGDKSRYMT-RZRmnv8PH-3" target="0FGDKSRYMT-RZRmnv8PH-2">
          <mxGeometry relative="1" as="geometry">
            <Array as="points">
              <mxPoint x="642" y="284" />
            </Array>
          </mxGeometry>
        </mxCell>
        <mxCell id="0FGDKSRYMT-RZRmnv8PH-10" value="Da error, pide de nuevo los datos" style="verticalAlign=bottom;endArrow=block;edgeStyle=elbowEdgeStyle;elbow=vertical;curved=0;rounded=0;" edge="1" parent="1" source="0FGDKSRYMT-RZRmnv8PH-2" target="0FGDKSRYMT-RZRmnv8PH-1">
          <mxGeometry relative="1" as="geometry">
            <Array as="points">
              <mxPoint x="283" y="338" />
            </Array>
          </mxGeometry>
        </mxCell>
        <mxCell id="0FGDKSRYMT-RZRmnv8PH-11" value="Usuario no encontrado" style="verticalAlign=bottom;endArrow=block;edgeStyle=elbowEdgeStyle;elbow=vertical;curved=0;rounded=0;dashed=1;dashPattern=2 3;" edge="1" parent="1" source="0FGDKSRYMT-RZRmnv8PH-3" target="0FGDKSRYMT-RZRmnv8PH-2">
          <mxGeometry relative="1" as="geometry">
            <Array as="points">
              <mxPoint x="642" y="439" />
            </Array>
          </mxGeometry>
        </mxCell>
        <mxCell id="0FGDKSRYMT-RZRmnv8PH-12" value="Crea nuevo usuario" style="verticalAlign=bottom;endArrow=block;edgeStyle=elbowEdgeStyle;elbow=vertical;curved=0;rounded=0;" edge="1" parent="1">
          <mxGeometry relative="1" as="geometry">
            <Array as="points">
              <mxPoint x="639" y="478" />
            </Array>
            <mxPoint x="446.5" y="478" as="sourcePoint" />
            <mxPoint x="812.5" y="478" as="targetPoint" />
          </mxGeometry>
        </mxCell>
        <mxCell id="0FGDKSRYMT-RZRmnv8PH-13" value="Redirige a la ventana de inicio de sesión" style="verticalAlign=bottom;endArrow=block;edgeStyle=elbowEdgeStyle;elbow=vertical;curved=0;rounded=0;" edge="1" parent="1" source="0FGDKSRYMT-RZRmnv8PH-2" target="0FGDKSRYMT-RZRmnv8PH-1">
          <mxGeometry relative="1" as="geometry">
            <Array as="points">
              <mxPoint x="283" y="547" />
            </Array>
          </mxGeometry>
        </mxCell>
        <mxCell id="0FGDKSRYMT-RZRmnv8PH-14" value="Usuario creado sin errores" style="verticalAlign=bottom;endArrow=block;edgeStyle=elbowEdgeStyle;elbow=vertical;curved=0;rounded=0;dashed=1;dashPattern=2 3;" edge="1" parent="1">
          <mxGeometry relative="1" as="geometry">
            <Array as="points">
              <mxPoint x="652" y="516" />
            </Array>
            <mxPoint x="812.5" y="516" as="sourcePoint" />
            <mxPoint x="446.5" y="516" as="targetPoint" />
          </mxGeometry>
        </mxCell>
      </root>
    </mxGraphModel>
  </diagram>
  <diagram id="Exe8C5OIJL4OSfjmXPTe" name="signup">
    <mxGraphModel dx="1050" dy="629" grid="1" gridSize="10" guides="1" tooltips="1" connect="1" arrows="1" fold="1" page="1" pageScale="1" pageWidth="827" pageHeight="1169" math="0" shadow="0">
      <root>
        <mxCell id="0" />
        <mxCell id="1" parent="0" />
        <mxCell id="umclrwHkf_NRGfWMYyDL-1" value="Interfaz" style="rounded=0;whiteSpace=wrap;html=1;" vertex="1" parent="1">
          <mxGeometry x="52" y="30" width="100" height="40" as="geometry" />
        </mxCell>
        <mxCell id="umclrwHkf_NRGfWMYyDL-2" value="" style="endArrow=none;dashed=1;html=1;dashPattern=1 3;strokeWidth=2;rounded=0;entryX=0.5;entryY=1;entryDx=0;entryDy=0;exitX=0.5;exitY=0;exitDx=0;exitDy=0;" edge="1" parent="1" source="umclrwHkf_NRGfWMYyDL-9" target="umclrwHkf_NRGfWMYyDL-1">
          <mxGeometry width="50" height="50" relative="1" as="geometry">
            <mxPoint x="102" y="120" as="sourcePoint" />
            <mxPoint x="101.30000000000001" y="80" as="targetPoint" />
          </mxGeometry>
        </mxCell>
        <mxCell id="umclrwHkf_NRGfWMYyDL-3" value="API Rest" style="rounded=0;whiteSpace=wrap;html=1;" vertex="1" parent="1">
          <mxGeometry x="290" y="30" width="100" height="40" as="geometry" />
        </mxCell>
        <mxCell id="umclrwHkf_NRGfWMYyDL-4" value="" style="endArrow=none;dashed=1;html=1;dashPattern=1 3;strokeWidth=2;rounded=0;exitX=0.5;exitY=0;exitDx=0;exitDy=0;" edge="1" parent="1" source="umclrwHkf_NRGfWMYyDL-13" target="umclrwHkf_NRGfWMYyDL-3">
          <mxGeometry width="50" height="50" relative="1" as="geometry">
            <mxPoint x="340" y="120" as="sourcePoint" />
            <mxPoint x="339.29999999999995" y="80" as="targetPoint" />
          </mxGeometry>
        </mxCell>
        <mxCell id="umclrwHkf_NRGfWMYyDL-5" value="Base de datos" style="rounded=0;whiteSpace=wrap;html=1;" vertex="1" parent="1">
          <mxGeometry x="510" y="30" width="100" height="40" as="geometry" />
        </mxCell>
        <mxCell id="umclrwHkf_NRGfWMYyDL-6" value="" style="endArrow=none;dashed=1;html=1;dashPattern=1 3;strokeWidth=2;rounded=0;exitX=0.5;exitY=0;exitDx=0;exitDy=0;" edge="1" parent="1" source="umclrwHkf_NRGfWMYyDL-22" target="umclrwHkf_NRGfWMYyDL-5">
          <mxGeometry width="50" height="50" relative="1" as="geometry">
            <mxPoint x="560.0000000000002" y="140" as="sourcePoint" />
            <mxPoint x="559.3" y="80" as="targetPoint" />
          </mxGeometry>
        </mxCell>
        <mxCell id="umclrwHkf_NRGfWMYyDL-7" value="Introduce datos del usuario" style="edgeStyle=orthogonalEdgeStyle;rounded=0;orthogonalLoop=1;jettySize=auto;html=1;entryX=0;entryY=0;entryDx=0;entryDy=0;verticalAlign=bottom;" edge="1" parent="1" source="umclrwHkf_NRGfWMYyDL-9" target="umclrwHkf_NRGfWMYyDL-13">
          <mxGeometry relative="1" as="geometry">
            <Array as="points">
              <mxPoint x="170" y="100" />
              <mxPoint x="170" y="100" />
            </Array>
          </mxGeometry>
        </mxCell>
        <mxCell id="umclrwHkf_NRGfWMYyDL-8" style="edgeStyle=orthogonalEdgeStyle;rounded=0;orthogonalLoop=1;jettySize=auto;html=1;dashed=1;dashPattern=1 3;strokeColor=default;strokeWidth=2;align=center;verticalAlign=middle;fontFamily=Helvetica;fontSize=11;fontColor=default;labelBackgroundColor=default;endArrow=none;endFill=0;curved=0;" edge="1" parent="1" source="umclrwHkf_NRGfWMYyDL-9">
          <mxGeometry relative="1" as="geometry">
            <mxPoint x="102" y="290" as="targetPoint" />
          </mxGeometry>
        </mxCell>
        <mxCell id="umclrwHkf_NRGfWMYyDL-9" value="" style="rounded=0;whiteSpace=wrap;html=1;" vertex="1" parent="1">
          <mxGeometry x="95" y="100" width="14" height="150" as="geometry" />
        </mxCell>
        <mxCell id="umclrwHkf_NRGfWMYyDL-12" style="edgeStyle=orthogonalEdgeStyle;rounded=0;orthogonalLoop=1;jettySize=auto;html=1;dashed=1;dashPattern=1 3;strokeColor=default;strokeWidth=2;align=center;verticalAlign=middle;fontFamily=Helvetica;fontSize=11;fontColor=default;labelBackgroundColor=default;endArrow=none;endFill=0;curved=0;" edge="1" parent="1" source="umclrwHkf_NRGfWMYyDL-13">
          <mxGeometry relative="1" as="geometry">
            <mxPoint x="340" y="280" as="targetPoint" />
          </mxGeometry>
        </mxCell>
        <mxCell id="TATX8Xrz-kuhxb2Gg3_f-1" value="Comprueba si el usuario existe" style="edgeStyle=orthogonalEdgeStyle;rounded=0;orthogonalLoop=1;jettySize=auto;html=1;entryX=0;entryY=0;entryDx=0;entryDy=0;verticalAlign=bottom;" edge="1" parent="1" source="umclrwHkf_NRGfWMYyDL-13" target="umclrwHkf_NRGfWMYyDL-22">
          <mxGeometry relative="1" as="geometry">
            <Array as="points">
              <mxPoint x="500" y="120" />
              <mxPoint x="500" y="120" />
            </Array>
          </mxGeometry>
        </mxCell>
        <mxCell id="lvcmemeVNJrWsfBKRxQH-5" value="Error al crear el usuario" style="edgeStyle=orthogonalEdgeStyle;rounded=0;orthogonalLoop=1;jettySize=auto;html=1;entryX=1;entryY=1;entryDx=0;entryDy=0;verticalAlign=bottom;" edge="1" parent="1" target="umclrwHkf_NRGfWMYyDL-9">
          <mxGeometry relative="1" as="geometry">
            <mxPoint x="330" y="250" as="sourcePoint" />
            <Array as="points">
              <mxPoint x="334" y="250" />
            </Array>
          </mxGeometry>
        </mxCell>
        <mxCell id="umclrwHkf_NRGfWMYyDL-13" value="" style="rounded=0;whiteSpace=wrap;html=1;" vertex="1" parent="1">
          <mxGeometry x="333" y="100" width="14" height="150" as="geometry" />
        </mxCell>
        <mxCell id="umclrwHkf_NRGfWMYyDL-21" style="edgeStyle=orthogonalEdgeStyle;rounded=0;orthogonalLoop=1;jettySize=auto;html=1;dashed=1;dashPattern=1 3;strokeColor=default;strokeWidth=2;align=center;verticalAlign=middle;fontFamily=Helvetica;fontSize=11;fontColor=default;labelBackgroundColor=default;endArrow=none;endFill=0;curved=0;" edge="1" parent="1" source="umclrwHkf_NRGfWMYyDL-22">
          <mxGeometry relative="1" as="geometry">
            <mxPoint x="560" y="280" as="targetPoint" />
          </mxGeometry>
        </mxCell>
        <mxCell id="umclrwHkf_NRGfWMYyDL-22" value="" style="rounded=0;whiteSpace=wrap;html=1;" vertex="1" parent="1">
          <mxGeometry x="553" y="120" width="14" height="110" as="geometry" />
        </mxCell>
        <mxCell id="umclrwHkf_NRGfWMYyDL-23" value="Usuario no existe" style="edgeStyle=orthogonalEdgeStyle;rounded=0;orthogonalLoop=1;jettySize=auto;html=1;entryX=1.044;entryY=0.411;entryDx=0;entryDy=0;verticalAlign=bottom;dashed=1;dashPattern=8 8;strokeColor=default;align=center;fontFamily=Helvetica;fontSize=11;fontColor=default;labelBackgroundColor=default;endArrow=classic;entryPerimeter=0;" edge="1" parent="1" target="umclrwHkf_NRGfWMYyDL-13">
          <mxGeometry relative="1" as="geometry">
            <Array as="points">
              <mxPoint x="449" y="162" />
            </Array>
            <mxPoint x="550" y="162" as="sourcePoint" />
          </mxGeometry>
        </mxCell>
        <mxCell id="gJKXGsyTf3IHwQlQwOu1-1" value="alt" style="shape=umlFrame;whiteSpace=wrap;html=1;pointerEvents=0;strokeColor=#999999;" vertex="1" parent="1">
          <mxGeometry x="20" y="140" width="570" height="130" as="geometry" />
        </mxCell>
        <mxCell id="nDftbUrkFXyjqxWOdb3H-1" value="Crear usuario" style="edgeStyle=orthogonalEdgeStyle;rounded=0;orthogonalLoop=1;jettySize=auto;html=1;entryX=-0.084;entryY=0.646;entryDx=0;entryDy=0;entryPerimeter=0;verticalAlign=bottom;" edge="1" parent="1" source="umclrwHkf_NRGfWMYyDL-13" target="umclrwHkf_NRGfWMYyDL-22">
          <mxGeometry relative="1" as="geometry">
            <Array as="points">
              <mxPoint x="430" y="191" />
              <mxPoint x="430" y="191" />
            </Array>
          </mxGeometry>
        </mxCell>
        <mxCell id="lvcmemeVNJrWsfBKRxQH-2" value="" style="endArrow=none;dashed=1;html=1;strokeWidth=2;rounded=0;entryX=1.001;entryY=0.517;entryDx=0;entryDy=0;entryPerimeter=0;dashPattern=12 12;strokeColor=#B3B3B3;" edge="1" parent="1" target="gJKXGsyTf3IHwQlQwOu1-1">
          <mxGeometry width="50" height="50" relative="1" as="geometry">
            <mxPoint x="30" y="207" as="sourcePoint" />
            <mxPoint x="480" y="100" as="targetPoint" />
          </mxGeometry>
        </mxCell>
        <mxCell id="lvcmemeVNJrWsfBKRxQH-3" value="Usuario ya existe" style="edgeStyle=orthogonalEdgeStyle;rounded=0;orthogonalLoop=1;jettySize=auto;html=1;verticalAlign=bottom;dashed=1;dashPattern=8 8;strokeColor=default;align=center;fontFamily=Helvetica;fontSize=11;fontColor=default;labelBackgroundColor=default;endArrow=classic;exitX=0;exitY=1;exitDx=0;exitDy=0;" edge="1" parent="1" source="umclrwHkf_NRGfWMYyDL-22">
          <mxGeometry relative="1" as="geometry">
            <Array as="points">
              <mxPoint x="550" y="230" />
              <mxPoint x="550" y="230" />
            </Array>
            <mxPoint x="692" y="179" as="sourcePoint" />
            <mxPoint x="346" y="230" as="targetPoint" />
          </mxGeometry>
        </mxCell>
      </root>
    </mxGraphModel>
  </diagram>
  <diagram name="login" id="UE9yfMUnsHQmewhWLPAP">
    <mxGraphModel dx="1235" dy="740" grid="1" gridSize="10" guides="1" tooltips="1" connect="1" arrows="1" fold="1" page="1" pageScale="1" pageWidth="827" pageHeight="1169" math="0" shadow="0">
      <root>
        <mxCell id="cFeW7lSLQcumLfzd2jKN-0" />
        <mxCell id="cFeW7lSLQcumLfzd2jKN-1" parent="cFeW7lSLQcumLfzd2jKN-0" />
        <mxCell id="cFeW7lSLQcumLfzd2jKN-2" value="Interfaz" style="rounded=0;whiteSpace=wrap;html=1;" vertex="1" parent="cFeW7lSLQcumLfzd2jKN-1">
          <mxGeometry x="90" y="30" width="100" height="40" as="geometry" />
        </mxCell>
        <mxCell id="cFeW7lSLQcumLfzd2jKN-3" value="" style="endArrow=none;dashed=1;html=1;dashPattern=1 3;strokeWidth=2;rounded=0;entryX=0.5;entryY=1;entryDx=0;entryDy=0;exitX=0.5;exitY=0;exitDx=0;exitDy=0;" edge="1" parent="cFeW7lSLQcumLfzd2jKN-1" source="cFeW7lSLQcumLfzd2jKN-10" target="cFeW7lSLQcumLfzd2jKN-2">
          <mxGeometry width="50" height="50" relative="1" as="geometry">
            <mxPoint x="140" y="120" as="sourcePoint" />
            <mxPoint x="139.3" y="80" as="targetPoint" />
          </mxGeometry>
        </mxCell>
        <mxCell id="cFeW7lSLQcumLfzd2jKN-4" value="API Rest" style="rounded=0;whiteSpace=wrap;html=1;" vertex="1" parent="cFeW7lSLQcumLfzd2jKN-1">
          <mxGeometry x="290" y="30" width="100" height="40" as="geometry" />
        </mxCell>
        <mxCell id="cFeW7lSLQcumLfzd2jKN-5" value="" style="endArrow=none;dashed=1;html=1;dashPattern=1 3;strokeWidth=2;rounded=0;exitX=0.5;exitY=0;exitDx=0;exitDy=0;" edge="1" parent="cFeW7lSLQcumLfzd2jKN-1" source="cFeW7lSLQcumLfzd2jKN-14" target="cFeW7lSLQcumLfzd2jKN-4">
          <mxGeometry width="50" height="50" relative="1" as="geometry">
            <mxPoint x="340" y="120" as="sourcePoint" />
            <mxPoint x="339.29999999999995" y="80" as="targetPoint" />
          </mxGeometry>
        </mxCell>
        <mxCell id="cFeW7lSLQcumLfzd2jKN-6" value="Base de datos" style="rounded=0;whiteSpace=wrap;html=1;" vertex="1" parent="cFeW7lSLQcumLfzd2jKN-1">
          <mxGeometry x="537" y="30" width="100" height="40" as="geometry" />
        </mxCell>
        <mxCell id="cFeW7lSLQcumLfzd2jKN-7" value="" style="endArrow=none;dashed=1;html=1;dashPattern=1 3;strokeWidth=2;rounded=0;exitX=0.5;exitY=0;exitDx=0;exitDy=0;" edge="1" parent="cFeW7lSLQcumLfzd2jKN-1" source="cFeW7lSLQcumLfzd2jKN-16" target="cFeW7lSLQcumLfzd2jKN-6">
          <mxGeometry width="50" height="50" relative="1" as="geometry">
            <mxPoint x="587.0000000000002" y="140" as="sourcePoint" />
            <mxPoint x="586.3" y="80" as="targetPoint" />
          </mxGeometry>
        </mxCell>
        <mxCell id="cFeW7lSLQcumLfzd2jKN-8" value="Introduce credenciales" style="edgeStyle=orthogonalEdgeStyle;rounded=0;orthogonalLoop=1;jettySize=auto;html=1;entryX=0;entryY=0;entryDx=0;entryDy=0;verticalAlign=bottom;" edge="1" parent="cFeW7lSLQcumLfzd2jKN-1" source="cFeW7lSLQcumLfzd2jKN-10" target="cFeW7lSLQcumLfzd2jKN-14">
          <mxGeometry relative="1" as="geometry">
            <Array as="points">
              <mxPoint x="170" y="100" />
              <mxPoint x="170" y="100" />
            </Array>
          </mxGeometry>
        </mxCell>
        <mxCell id="cFeW7lSLQcumLfzd2jKN-9" style="edgeStyle=orthogonalEdgeStyle;rounded=0;orthogonalLoop=1;jettySize=auto;html=1;dashed=1;dashPattern=1 3;strokeColor=default;strokeWidth=2;align=center;verticalAlign=middle;fontFamily=Helvetica;fontSize=11;fontColor=default;labelBackgroundColor=default;endArrow=none;endFill=0;curved=0;" edge="1" parent="cFeW7lSLQcumLfzd2jKN-1" source="cFeW7lSLQcumLfzd2jKN-10">
          <mxGeometry relative="1" as="geometry">
            <mxPoint x="140" y="290" as="targetPoint" />
          </mxGeometry>
        </mxCell>
        <mxCell id="cFeW7lSLQcumLfzd2jKN-10" value="" style="rounded=0;whiteSpace=wrap;html=1;" vertex="1" parent="cFeW7lSLQcumLfzd2jKN-1">
          <mxGeometry x="133" y="100" width="14" height="150" as="geometry" />
        </mxCell>
        <mxCell id="cFeW7lSLQcumLfzd2jKN-11" style="edgeStyle=orthogonalEdgeStyle;rounded=0;orthogonalLoop=1;jettySize=auto;html=1;dashed=1;dashPattern=1 3;strokeColor=default;strokeWidth=2;align=center;verticalAlign=middle;fontFamily=Helvetica;fontSize=11;fontColor=default;labelBackgroundColor=default;endArrow=none;endFill=0;curved=0;" edge="1" parent="cFeW7lSLQcumLfzd2jKN-1" source="cFeW7lSLQcumLfzd2jKN-14">
          <mxGeometry relative="1" as="geometry">
            <mxPoint x="340" y="280" as="targetPoint" />
          </mxGeometry>
        </mxCell>
        <mxCell id="cFeW7lSLQcumLfzd2jKN-12" value="Comprueba credenciales correctos" style="edgeStyle=orthogonalEdgeStyle;rounded=0;orthogonalLoop=1;jettySize=auto;html=1;entryX=0;entryY=0;entryDx=0;entryDy=0;verticalAlign=bottom;" edge="1" parent="cFeW7lSLQcumLfzd2jKN-1" source="cFeW7lSLQcumLfzd2jKN-14" target="cFeW7lSLQcumLfzd2jKN-16">
          <mxGeometry relative="1" as="geometry">
            <Array as="points">
              <mxPoint x="530" y="120" />
              <mxPoint x="530" y="120" />
            </Array>
          </mxGeometry>
        </mxCell>
        <mxCell id="cFeW7lSLQcumLfzd2jKN-13" value="Error al iniciar sesión" style="edgeStyle=orthogonalEdgeStyle;rounded=0;orthogonalLoop=1;jettySize=auto;html=1;entryX=1;entryY=1;entryDx=0;entryDy=0;verticalAlign=bottom;" edge="1" parent="cFeW7lSLQcumLfzd2jKN-1" target="cFeW7lSLQcumLfzd2jKN-10">
          <mxGeometry relative="1" as="geometry">
            <mxPoint x="330" y="250" as="sourcePoint" />
            <Array as="points">
              <mxPoint x="334" y="250" />
            </Array>
          </mxGeometry>
        </mxCell>
        <mxCell id="cFeW7lSLQcumLfzd2jKN-14" value="" style="rounded=0;whiteSpace=wrap;html=1;" vertex="1" parent="cFeW7lSLQcumLfzd2jKN-1">
          <mxGeometry x="333" y="100" width="14" height="150" as="geometry" />
        </mxCell>
        <mxCell id="cFeW7lSLQcumLfzd2jKN-15" style="edgeStyle=orthogonalEdgeStyle;rounded=0;orthogonalLoop=1;jettySize=auto;html=1;dashed=1;dashPattern=1 3;strokeColor=default;strokeWidth=2;align=center;verticalAlign=middle;fontFamily=Helvetica;fontSize=11;fontColor=default;labelBackgroundColor=default;endArrow=none;endFill=0;curved=0;" edge="1" parent="cFeW7lSLQcumLfzd2jKN-1" source="cFeW7lSLQcumLfzd2jKN-16">
          <mxGeometry relative="1" as="geometry">
            <mxPoint x="587" y="280" as="targetPoint" />
          </mxGeometry>
        </mxCell>
        <mxCell id="cFeW7lSLQcumLfzd2jKN-16" value="" style="rounded=0;whiteSpace=wrap;html=1;" vertex="1" parent="cFeW7lSLQcumLfzd2jKN-1">
          <mxGeometry x="580" y="120" width="14" height="110" as="geometry" />
        </mxCell>
        <mxCell id="cFeW7lSLQcumLfzd2jKN-17" value="Credenciales OK" style="edgeStyle=orthogonalEdgeStyle;rounded=0;orthogonalLoop=1;jettySize=auto;html=1;entryX=1.044;entryY=0.411;entryDx=0;entryDy=0;verticalAlign=bottom;dashed=1;dashPattern=8 8;strokeColor=default;align=center;fontFamily=Helvetica;fontSize=11;fontColor=default;labelBackgroundColor=default;endArrow=classic;entryPerimeter=0;" edge="1" parent="cFeW7lSLQcumLfzd2jKN-1" target="cFeW7lSLQcumLfzd2jKN-14">
          <mxGeometry relative="1" as="geometry">
            <Array as="points">
              <mxPoint x="464" y="162" />
            </Array>
            <mxPoint x="580" y="162" as="sourcePoint" />
          </mxGeometry>
        </mxCell>
        <mxCell id="cFeW7lSLQcumLfzd2jKN-18" value="alt" style="shape=umlFrame;whiteSpace=wrap;html=1;pointerEvents=0;strokeColor=#999999;" vertex="1" parent="cFeW7lSLQcumLfzd2jKN-1">
          <mxGeometry x="60" y="140" width="560" height="130" as="geometry" />
        </mxCell>
        <mxCell id="cFeW7lSLQcumLfzd2jKN-20" value="" style="endArrow=none;dashed=1;html=1;strokeWidth=2;rounded=0;entryX=1.001;entryY=0.517;entryDx=0;entryDy=0;entryPerimeter=0;dashPattern=12 12;strokeColor=#B3B3B3;" edge="1" parent="cFeW7lSLQcumLfzd2jKN-1" target="cFeW7lSLQcumLfzd2jKN-18">
          <mxGeometry width="50" height="50" relative="1" as="geometry">
            <mxPoint x="60" y="207" as="sourcePoint" />
            <mxPoint x="480" y="100" as="targetPoint" />
          </mxGeometry>
        </mxCell>
        <mxCell id="cFeW7lSLQcumLfzd2jKN-21" value="Credenciales incorrectos" style="edgeStyle=orthogonalEdgeStyle;rounded=0;orthogonalLoop=1;jettySize=auto;html=1;verticalAlign=bottom;dashed=1;dashPattern=8 8;strokeColor=default;align=center;fontFamily=Helvetica;fontSize=11;fontColor=default;labelBackgroundColor=default;endArrow=classic;exitX=0;exitY=1;exitDx=0;exitDy=0;" edge="1" parent="cFeW7lSLQcumLfzd2jKN-1" source="cFeW7lSLQcumLfzd2jKN-16">
          <mxGeometry relative="1" as="geometry">
            <Array as="points">
              <mxPoint x="520" y="230" />
              <mxPoint x="520" y="230" />
            </Array>
            <mxPoint x="692" y="179" as="sourcePoint" />
            <mxPoint x="346" y="230" as="targetPoint" />
          </mxGeometry>
        </mxCell>
        <mxCell id="8TqqfzqWKiqHGB-lH-95-0" value="Inicia sesión" style="edgeStyle=orthogonalEdgeStyle;rounded=0;orthogonalLoop=1;jettySize=auto;html=1;entryX=0.957;entryY=0.592;entryDx=0;entryDy=0;entryPerimeter=0;verticalAlign=bottom;" edge="1" parent="cFeW7lSLQcumLfzd2jKN-1" source="cFeW7lSLQcumLfzd2jKN-14" target="cFeW7lSLQcumLfzd2jKN-10">
          <mxGeometry relative="1" as="geometry">
            <Array as="points">
              <mxPoint x="280" y="189" />
              <mxPoint x="280" y="189" />
            </Array>
          </mxGeometry>
        </mxCell>
      </root>
    </mxGraphModel>
  </diagram>
</mxfile>
